{"title":"Deftones - Adrenaline [24-bit 44.1kHz flac] MC Lurken","uid":11751507,"size":556534966,"categoryP":"audio","categoryS":"flac","magnet":"?xt=urn:btih:8ced30c9da4738f263db6b5b45c0d003dab80a53&amp;dn=Deftones+-+Adrenaline+%5B24-bit+44.1kHz+flac%5D+MC+Lurken&amp;tr=udp%3A%2F%2Ftracker.openbittorrent.com%3A80&amp;tr=udp%3A%2F%2Fopen.demonii.com%3A1337&amp;tr=udp%3A%2F%2Ftracker.coppersurfer.tk%3A6969&amp;tr=udp%3A%2F%2Fexodus.desync.com%3A6969","seeders":3,"leechers":1,"uploader":"beavis39","files":21,"time":1426236150,"description":"Deftones - Adrenaline [24-bit 44.1kHz flac] MC Lurken\n\n\n\n1 - Bored\n2 - Minus Blindfold\n3 - One Weak\n4 - Nosebleed\n5 - Lifter\n6 - Root\n7 - 7 Words\n8 - Birthmark\n9 - Engine No. 9\n10 - Fireal\n11 - Fist\n\n\n\nfoobar2000 1.3.7 / Dynamic Range Meter 1.1.1\nlog date: 2015-03-13 00:48:01\n\n--------------------------------------------------------------------------------\nAnalyzed: Deftones / Adrenaline\n--------------------------------------------------------------------------------\n\nDR         Peak         RMS     Duration Track\n--------------------------------------------------------------------------------\nDR8        0.00 dB    -9.66 dB      4:06 01-Bored\nDR8        0.00 dB    -9.63 dB      4:04 02-Minus Blindfold\nDR7        0.00 dB    -8.81 dB      4:29 03-One Weak\nDR9        0.00 dB   -10.89 dB      4:26 04-Nosebleed\nDR7        0.00 dB    -8.68 dB      4:43 05-Lifter\nDR8        0.00 dB   -10.76 dB      3:41 06-Root\nDR8        0.00 dB    -9.32 dB      3:44 07-7 Words\nDR8        0.00 dB    -9.69 dB      4:19 08-Birthmark\nDR8        0.00 dB    -8.98 dB      3:25 09-Engine No. 9\nDR8        0.00 dB   -10.30 dB      6:36 10-Fireal\nDR9        0.00 dB   -14.76 dB      3:35 11-Fist\n--------------------------------------------------------------------------------\n\nNumber of tracks:  11\nOfficial DR value: DR8\n\nSamplerate:        44100 Hz\nChannels:          2\nBits per sample:   24\nBitrate:           1306 kbps\nCodec:             FLAC","torrent":{"xt":"urn:btih:8ced30c9da4738f263db6b5b45c0d003dab80a53","amp;dn":"Deftones+-+Adrenaline+%5B24-bit+44.1kHz+flac%5D+MC+Lurken","amp;tr":["udp%3A%2F%2Ftracker.openbittorrent.com%3A80","udp%3A%2F%2Fopen.demonii.com%3A1337","udp%3A%2F%2Ftracker.coppersurfer.tk%3A6969","udp%3A%2F%2Fexodus.desync.com%3A6969"],"infoHash":"8ced30c9da4738f263db6b5b45c0d003dab80a53","infoHashBuffer":{"type":"Buffer","data":[140,237,48,201,218,71,56,242,99,219,107,91,69,192,208,3,218,184,10,83]},"announce":[],"urlList":[]}}